<svg xmlns="http://www.w3.org/2000/svg" xmlns:xlink="http://www.w3.org/1999/xlink" width="1024" zoomAndPan="magnify" viewBox="0 0 768 767.999994" height="1024" preserveAspectRatio="xMidYMid meet" version="1.0"><defs><g/></defs><rect x="-76.8" width="921.6" fill="#ffffff" y="-76.799999" height="921.599993" fill-opacity="1"/><rect x="-76.8" width="921.6" fill="#ffffff" y="-76.799999" height="921.599993" fill-opacity="1"/><rect x="-76.8" width="921.6" fill="#000000" y="-76.799999" height="921.599993" fill-opacity="1"/><g fill="#fef401" fill-opacity="1"><g transform="translate(145.667169, 420.864013)"><g><path d="M 50.945312 -155.191406 C 58.464844 -155.191406 63.636719 -160.171875 63.636719 -167.316406 C 63.636719 -174.367188 58.464844 -179.253906 50.945312 -179.253906 C 43.425781 -179.253906 38.445312 -174.367188 38.445312 -167.316406 C 38.445312 -160.171875 43.425781 -155.191406 50.945312 -155.191406 Z M 82.625 -155.097656 C 90.144531 -155.097656 95.3125 -160.078125 95.3125 -167.222656 C 95.3125 -174.269531 90.144531 -179.160156 82.625 -179.160156 C 75.105469 -179.160156 70.121094 -174.269531 70.121094 -167.222656 C 70.121094 -160.078125 75.105469 -155.097656 82.625 -155.097656 Z M 65.515625 3.761719 C 104.808594 3.761719 128.871094 -24.910156 128.871094 -72.003906 C 128.871094 -118.8125 104.808594 -147.386719 65.515625 -147.386719 C 26.132812 -147.386719 1.972656 -118.8125 1.972656 -72.003906 C 1.972656 -24.910156 26.132812 3.761719 65.515625 3.761719 Z M 65.515625 -38.351562 C 53.953125 -38.351562 48.03125 -49.914062 48.03125 -71.90625 C 48.03125 -93.714844 53.953125 -105.277344 65.515625 -105.277344 C 76.984375 -105.277344 82.8125 -93.714844 82.8125 -71.90625 C 82.8125 -49.914062 76.984375 -38.351562 65.515625 -38.351562 Z M 65.515625 -38.351562 "/></g></g></g><g fill="#fef401" fill-opacity="1"><g transform="translate(248.788075, 420.864013)"><g><path d="M 111.574219 0 L 92.679688 -58.75 C 101.046875 -66.269531 105.652344 -77.453125 105.652344 -92.117188 C 105.652344 -124.078125 87.792969 -143.535156 58.464844 -143.535156 L 6.578125 -143.535156 L 6.578125 0 L 52.734375 0 L 52.734375 -47.9375 L 54.046875 -47.9375 L 64.199219 0 Z M 52.734375 -104.523438 L 55.550781 -104.523438 C 60.160156 -104.523438 62.507812 -100.671875 62.507812 -93.339844 C 62.507812 -86.007812 60.0625 -82.152344 55.269531 -82.152344 L 52.734375 -82.152344 Z M 52.734375 -104.523438 "/></g></g></g><g fill="#fef401" fill-opacity="1"><g transform="translate(332.075819, 420.864013)"><g><path d="M 76.703125 -143.535156 L 76.703125 -84.597656 L 54.707031 -143.535156 L 6.578125 -143.535156 L 6.578125 0 L 52.636719 0 L 52.074219 -53.578125 L 74.726562 0 L 122.574219 0 L 122.574219 -143.535156 Z M 76.703125 -143.535156 "/></g></g></g><g fill="#fef401" fill-opacity="1"><g transform="translate(433.504784, 420.864013)"><g><path d="M 6.578125 0 L 89.015625 0 L 89.015625 -40.984375 L 52.636719 -40.984375 L 52.636719 -54.707031 L 82.058594 -54.707031 L 82.058594 -88.734375 L 52.636719 -88.734375 L 52.636719 -102.550781 L 88.261719 -102.550781 L 88.261719 -143.535156 L 6.578125 -143.535156 Z M 6.578125 0 "/></g></g></g><g fill="#fef401" fill-opacity="1"><g transform="translate(497.429345, 420.864013)"><g><path d="M 94.9375 -71.90625 L 120.316406 -143.535156 L 70.027344 -143.535156 L 53.578125 -85.066406 L 52.734375 -85.066406 L 52.734375 -143.535156 L 6.578125 -143.535156 L 6.578125 0 L 52.734375 0 L 52.734375 -55.363281 L 54.140625 -55.363281 L 72.191406 0 L 123.984375 0 Z M 94.9375 -71.90625 "/></g></g></g><path stroke-linecap="butt" transform="matrix(1.536, 0, 0, 1.536, 62.939172, 317.952016)" fill="none" stroke-linejoin="miter" d="M 87.027418 -34.034008 C 91.922946 -34.034008 95.290052 -37.279044 95.290052 -41.930432 C 95.290052 -46.518241 91.922946 -49.702242 87.027418 -49.702242 C 82.13189 -49.702242 78.889397 -46.518241 78.889397 -41.930432 C 78.889397 -37.279044 82.13189 -34.034008 87.027418 -34.034008 Z M 107.649672 -33.972973 C 112.547743 -33.972973 115.912307 -37.218009 115.912307 -41.869397 C 115.912307 -46.457206 112.547743 -49.641207 107.649672 -49.641207 C 102.754144 -49.641207 99.511651 -46.457206 99.511651 -41.869397 C 99.511651 -37.218009 102.754144 -33.972973 107.649672 -33.972973 Z M 96.513299 69.448559 C 122.092116 69.448559 137.76035 50.781974 137.76035 20.124522 C 137.76035 -10.352367 122.092116 -28.955375 96.513299 -28.955375 C 70.870903 -28.955375 55.144177 -10.352367 55.144177 20.124522 C 55.144177 50.781974 70.870903 69.448559 96.513299 69.448559 Z M 96.513299 42.031058 C 88.985629 42.031058 85.130242 34.505931 85.130242 20.185557 C 85.130242 5.987254 88.985629 -1.540416 96.513299 -1.540416 C 103.979933 -1.540416 107.774285 5.987254 107.774285 20.185557 C 107.774285 34.505931 103.979933 42.031058 96.513299 42.031058 Z M 193.635494 66.999524 L 181.334367 28.753368 C 186.781755 23.857839 189.780107 16.57431 189.780107 7.027394 C 189.780107 -13.777965 178.152909 -26.447847 159.059077 -26.447847 L 125.27866 -26.447847 L 125.27866 66.999524 L 155.32576 66.999524 L 155.32576 35.790213 L 156.182795 35.790213 L 162.792394 66.999524 Z M 155.32576 -1.049592 L 157.161901 -1.049592 C 160.160253 -1.049592 161.691218 1.457936 161.691218 6.231394 C 161.691218 11.004852 160.099218 13.514923 156.978796 13.514923 L 155.32576 13.514923 Z M 225.155067 -26.447847 L 225.155067 11.922923 L 210.834693 -26.447847 L 179.503312 -26.447847 L 179.503312 66.999524 L 209.489377 66.999524 L 209.123166 32.117931 L 223.870786 66.999524 L 255.019062 66.999524 L 255.019062 -26.447847 Z M 245.538267 66.999524 L 299.205973 66.999524 L 299.205973 40.31953 L 275.524332 40.31953 L 275.524332 31.382966 L 294.679199 31.382966 L 294.679199 9.229746 L 275.524332 9.229746 L 275.524332 0.23469 L 298.717692 0.23469 L 298.717692 -26.447847 L 245.538267 -26.447847 Z M 344.679709 20.185557 L 361.202435 -26.447847 L 328.462159 -26.447847 L 317.753032 11.617747 L 317.201172 11.617747 L 317.201172 -26.447847 L 287.154073 -26.447847 L 287.154073 66.999524 L 317.201172 66.999524 L 317.201172 30.95572 L 318.119243 30.95572 L 329.871054 66.999524 L 363.587893 66.999524 Z M 344.679709 20.185557 " stroke="#000000" stroke-width="5.169986" stroke-opacity="1" stroke-miterlimit="4"/><g fill="#fef401" fill-opacity="1"><g transform="translate(255.514399, 471.165333)"><g><path d="M 16.148438 -14.96875 C 18.054688 -15.738281 19.664062 -17.484375 19.664062 -20.089844 C 19.664062 -24.335938 16.128906 -27.246094 10.542969 -27.246094 L 2.390625 -27.246094 L 2.390625 0 L 12.203125 0 C 18.019531 0 21.695312 -3.445312 21.695312 -8.117188 C 21.695312 -11.722656 19.214844 -14.273438 16.148438 -14.96875 Z M 8.101562 -22.480469 L 10.171875 -22.480469 C 12.757812 -22.480469 14.058594 -21.125 14.058594 -19.289062 C 14.058594 -17.503906 12.773438 -15.988281 10.6875 -15.988281 L 8.101562 -15.988281 Z M 11.578125 -4.835938 L 8.101562 -4.835938 L 8.101562 -12.203125 L 12.0625 -12.203125 C 14.167969 -12.203125 15.808594 -10.542969 15.808594 -8.582031 C 15.808594 -6.582031 14.308594 -4.835938 11.578125 -4.835938 Z M 11.578125 -4.835938 "/></g></g></g><g fill="#fef401" fill-opacity="1"><g transform="translate(280.964922, 471.165333)"><g><path d="M 2.390625 0 L 17.234375 0 L 17.234375 -5.226562 L 8.226562 -5.226562 L 8.226562 -27.246094 L 2.390625 -27.246094 Z M 2.390625 0 "/></g></g></g><g fill="#fef401" fill-opacity="1"><g transform="translate(301.920788, 471.165333)"><g><path d="M 15.648438 0.695312 C 23.765625 0.695312 30.082031 -5.566406 30.082031 -13.667969 C 30.082031 -21.730469 23.765625 -27.976562 15.648438 -27.976562 C 7.53125 -27.976562 1.214844 -21.730469 1.214844 -13.667969 C 1.214844 -5.566406 7.53125 0.695312 15.648438 0.695312 Z M 15.648438 -4.691406 C 10.832031 -4.691406 7.066406 -8.582031 7.066406 -13.648438 C 7.066406 -18.699219 10.832031 -22.605469 15.648438 -22.605469 C 20.464844 -22.605469 24.246094 -18.699219 24.246094 -13.648438 C 24.246094 -8.582031 20.464844 -4.691406 15.648438 -4.691406 Z M 15.648438 -4.691406 "/></g></g></g><g fill="#fef401" fill-opacity="1"><g transform="translate(336.128756, 471.165333)"><g><path d="M 15.738281 0.695312 C 19.089844 0.695312 22.195312 -0.144531 25.800781 -2.285156 L 25.800781 -13.203125 L 20.574219 -13.203125 L 20.574219 -5.636719 C 18.964844 -4.90625 17.539062 -4.566406 15.863281 -4.566406 C 10.867188 -4.566406 6.941406 -8.316406 6.941406 -13.648438 C 6.941406 -18.984375 11.007812 -22.730469 16.023438 -22.730469 C 19.539062 -22.730469 22.410156 -21.519531 25.070312 -19.75 L 24.90625 -25.371094 C 22.515625 -26.835938 19.339844 -27.976562 16.003906 -27.976562 C 7.976562 -27.976562 1.214844 -21.714844 1.214844 -13.667969 C 1.214844 -5.496094 7.867188 0.695312 15.738281 0.695312 Z M 15.738281 0.695312 "/></g></g></g><g fill="#fef401" fill-opacity="1"><g transform="translate(366.609013, 471.165333)"><g/></g></g><g fill="#fef401" fill-opacity="1"><g transform="translate(379.681395, 471.165333)"><g><path d="M 9.6875 0 L 15.523438 0 L 15.523438 -11.882812 L 24.960938 -27.261719 L 18.074219 -27.261719 L 12.613281 -17.46875 L 7.136719 -27.261719 L 0.285156 -27.261719 L 9.6875 -11.867188 Z M 9.6875 0 "/></g></g></g><g fill="#fef401" fill-opacity="1"><g transform="translate(407.84298, 471.165333)"><g><path d="M 20.859375 0 L 27.261719 0 L 16.488281 -27.246094 L 11.492188 -27.246094 L 0.730469 0 L 6.976562 0 L 9.011719 -5.636719 L 18.804688 -5.636719 Z M 10.742188 -10.421875 L 13.917969 -19.144531 L 17.074219 -10.421875 Z M 10.742188 -10.421875 "/></g></g></g><g fill="#fef401" fill-opacity="1"><g transform="translate(438.769135, 471.165333)"><g><path d="M 0.445312 0 L 21.929688 0 L 21.929688 -5.226562 L 10.097656 -5.226562 L 22.605469 -27.246094 L 2.355469 -27.246094 L 2.355469 -22.035156 L 13.007812 -22.035156 Z M 0.445312 0 "/></g></g></g><g fill="#fef401" fill-opacity="1"><g transform="translate(465.022274, 471.165333)"><g><path d="M 2.390625 0 L 8.242188 0 L 8.242188 -27.246094 L 2.390625 -27.246094 Z M 2.390625 0 "/></g></g></g><g fill="#fef401" fill-opacity="1"><g transform="translate(478.558391, 471.165333)"><g><path d="M 9.921875 0.695312 C 15.308594 0.695312 19.304688 -2.320312 19.304688 -7.851562 C 19.304688 -12.453125 15.789062 -14.683594 11.402344 -16.183594 C 8.851562 -17.09375 7.121094 -17.824219 7.121094 -19.804688 C 7.121094 -21.519531 8.402344 -22.785156 10.707031 -22.785156 C 12.988281 -22.785156 15.863281 -21.769531 17.789062 -20.25 L 17.789062 -26.085938 C 15.46875 -27.300781 13.148438 -27.960938 10.597656 -27.960938 C 5.246094 -27.960938 1.390625 -24.890625 1.390625 -20 C 1.390625 -15.253906 4.230469 -13.347656 8.652344 -11.667969 C 11.527344 -10.542969 13.453125 -9.722656 13.453125 -7.851562 C 13.453125 -5.710938 11.9375 -4.550781 9.921875 -4.550781 C 7.171875 -4.550781 3.835938 -6.316406 1.480469 -8.066406 L 1.5 -1.875 C 3.730469 -0.535156 6.371094 0.695312 9.921875 0.695312 Z M 9.921875 0.695312 "/></g></g></g><g fill="#fef401" fill-opacity="1"><g transform="translate(501.868601, 471.165333)"><g><path d="M 2.390625 0 L 8.242188 0 L 8.242188 -27.246094 L 2.390625 -27.246094 Z M 2.390625 0 "/></g></g></g></svg>